<?xml version="1.0" standalone="no"?>
<!DOCTYPE svg PUBLIC "-//W3C//DTD SVG 20010904//EN"
 "http://www.w3.org/TR/2001/REC-SVG-20010904/DTD/svg10.dtd">
<svg version="1.0" xmlns="http://www.w3.org/2000/svg"
 width="512.000000pt" height="512.000000pt" viewBox="0 0 512.000000 512.000000"
 preserveAspectRatio="xMidYMid meet">
<metadata>
Created by potrace 1.14, written by Peter Selinger 2001-2017
</metadata>
<g transform="translate(0.000000,512.000000) scale(0.100000,-0.100000)"
fill="#000000" stroke="none">
<path d="M1255 4829 c-509 -70 -946 -406 -1144 -879 -232 -556 -93 -1222 401
-1918 232 -327 557 -679 929 -1006 262 -231 767 -618 900 -690 129 -71 298
-73 432 -5 56 29 310 211 505 363 460 357 894 778 1193 1156 340 429 551 856
625 1265 27 150 25 437 -4 567 -91 414 -330 747 -687 959 -240 143 -513 210
-795 195 -213 -11 -393 -58 -577 -152 -141 -71 -248 -150 -370 -271 l-103
-103 -103 103 c-56 56 -139 128 -184 160 -159 113 -370 204 -563 242 -93 19
-361 27 -455 14z m374 -155 c295 -43 570 -192 770 -418 58 -66 119 -106 161
-106 42 0 103 40 161 105 185 210 428 350 709 411 119 26 381 26 500 0 251
-54 456 -164 641 -343 160 -155 268 -325 333 -525 34 -103 66 -276 66 -356 l0
-40 -141 -4 c-134 -3 -142 -4 -160 -27 -28 -35 -25 -85 7 -110 24 -19 40 -21
154 -21 l127 0 -9 -62 c-49 -361 -260 -803 -573 -1200 l-76 -98 -1395 0
c-1486 0 -1440 1 -1458 -45 -13 -34 -6 -72 17 -93 l23 -22 1339 -2 1339 -3
-225 -226 c-312 -315 -596 -558 -967 -831 l-163 -119 -117 82 c-696 489 -1300
1049 -1669 1549 -245 331 -431 705 -493 987 -6 27 -13 56 -16 66 -5 16 93 17
1956 17 l1961 0 24 25 c39 38 27 102 -22 124 -17 8 -614 11 -2155 11 l-2131 0
7 88 c26 327 158 605 395 835 143 138 292 232 471 295 194 68 399 87 609 56z"/>
</g>
</svg>
